<?xml version="1.0" standalone="no"?>
<!DOCTYPE svg PUBLIC "-//W3C//DTD SVG 20010904//EN"
        "http://www.w3.org/TR/2001/REC-SVG-20010904/DTD/svg10.dtd">
<svg version="1.0" xmlns="http://www.w3.org/2000/svg"
     width="260.0pt" height="75.0pt" viewBox="0 0 2600.000000 750.000000"
     preserveAspectRatio="xMidYMid meet">

    <g transform="translate(0.000000,747.000000) scale(0.100000,-0.100000)"
       fill="#000" stroke="none">
        <path d="M4730 5563 c-14 -2 -54 -18 -89 -36 -53 -26 -73 -43 -107 -92 -34
-50 -50 -63 -93 -80 -29 -11 -57 -28 -63 -38 -22 -41 72 -94 194 -111 75 -10
287 -174 288 -222 0 -7 15 -34 34 -61 19 -27 46 -74 61 -104 15 -29 33 -58 40
-64 7 -5 16 -23 20 -40 6 -27 74 -119 138 -187 14 -15 28 -35 31 -45 8 -23
188 -215 323 -342 34 -31 75 -83 93 -115 18 -31 44 -65 59 -74 14 -9 60 -52
101 -94 42 -43 80 -78 86 -78 6 0 21 -14 33 -31 32 -43 18 -68 -55 -105 -49
-24 -128 -73 -208 -126 -61 -42 -190 -146 -261 -211 -11 -10 -40 -29 -65 -42
-25 -13 -67 -44 -95 -69 -27 -25 -75 -63 -105 -83 -30 -20 -89 -64 -130 -98
-82 -67 -166 -125 -180 -125 -15 0 -70 -51 -70 -65 0 -7 -7 -18 -15 -25 -9 -7
-15 -29 -15 -51 0 -21 -4 -48 -9 -61 -10 -26 -69 -88 -85 -89 -6 0 -38 -22
-71 -50 -59 -48 -206 -153 -246 -175 -38 -21 -109 -96 -109 -114 0 -27 27 -43
71 -42 37 2 60 -7 142 -55 29 -16 122 -5 182 23 66 31 314 213 364 268 14 14
30 26 36 26 16 0 191 141 271 218 24 23 62 52 85 65 68 38 73 41 120 80 26 20
49 37 54 37 4 0 27 14 52 30 24 17 46 30 49 30 3 0 26 18 52 39 26 21 57 42
68 45 12 4 37 22 55 41 19 19 41 35 50 35 9 0 22 7 29 15 7 8 16 15 21 15 5 0
28 13 51 30 22 17 46 30 51 30 6 0 25 11 43 25 18 14 37 25 41 25 5 0 47 34
93 76 47 42 103 88 125 103 23 14 61 43 86 63 24 20 67 44 94 53 81 27 95 66
50 133 -16 23 -25 51 -25 74 0 24 -8 46 -24 65 -13 15 -31 44 -41 63 -9 19
-27 46 -40 60 -12 14 -33 44 -47 68 -25 43 -61 87 -178 217 -147 164 -303 346
-380 441 -30 38 -74 89 -97 114 -63 66 -152 180 -173 220 -10 19 -32 48 -49
64 -24 23 -31 38 -31 67 0 51 -32 89 -74 89 -60 0 -251 104 -334 181 -12 12
-25 33 -28 48 -12 55 -39 103 -65 117 -26 13 -117 17 -179 7z"/>
        <path d="M20315 5390 c-25 -10 -121 -32 -160 -37 -16 -2 -66 -21 -110 -42 -44
-21 -96 -46 -115 -54 -92 -43 -250 -176 -328 -276 -23 -31 -55 -69 -70 -86
-47 -51 -137 -191 -180 -280 -22 -45 -73 -214 -81 -270 -5 -33 -19 -85 -31
-115 -12 -30 -29 -80 -37 -110 -7 -30 -20 -67 -28 -82 -8 -14 -15 -37 -15 -50
0 -25 -41 -161 -57 -193 -19 -36 -34 -109 -48 -230 -17 -144 -18 -201 -5 -257
5 -24 16 -77 25 -118 22 -102 62 -218 90 -260 13 -19 26 -46 30 -60 9 -29 35
-66 88 -123 20 -22 37 -43 37 -46 0 -7 57 -65 141 -146 6 -5 24 -23 39 -38 67
-66 428 -267 478 -267 11 0 53 -11 93 -25 116 -38 253 -65 429 -85 41 -5 104
-13 140 -19 93 -15 242 -13 335 5 44 9 100 19 125 23 25 4 69 19 98 34 30 15
59 27 65 27 6 0 18 6 26 14 21 18 206 116 219 116 6 0 50 18 97 40 47 22 94
40 103 40 26 0 97 55 184 143 38 38 88 126 88 153 0 8 6 25 14 37 8 12 17 38
21 57 4 19 14 44 21 55 8 11 14 32 14 48 0 15 6 40 14 55 7 15 17 52 21 82 4
30 15 73 24 95 12 31 16 74 15 190 -1 294 -17 443 -60 566 -13 38 -24 81 -24
96 0 14 -4 40 -9 57 -5 17 -21 68 -35 114 -14 46 -26 88 -26 93 0 6 -13 36
-29 68 -15 32 -34 75 -41 97 -6 21 -22 48 -34 59 -12 11 -44 53 -72 94 -27 40
-67 92 -89 116 -22 24 -96 103 -163 177 -198 214 -288 288 -442 364 -137 68
-177 83 -300 114 -25 6 -54 15 -65 20 -60 26 -369 41 -420 20z m370 -385 c107
-5 257 -43 310 -79 21 -15 46 -26 56 -26 9 0 32 -18 49 -40 18 -22 46 -48 63
-57 17 -8 76 -61 130 -117 139 -141 186 -219 250 -406 49 -146 58 -239 60
-612 0 -149 -2 -180 -16 -202 -9 -14 -17 -31 -17 -38 0 -7 -9 -30 -20 -51 -11
-20 -20 -43 -20 -51 0 -14 -55 -123 -87 -172 -17 -27 -38 -50 -95 -100 -37
-33 -217 -154 -229 -154 -6 0 -25 -11 -42 -24 -18 -13 -59 -38 -92 -56 -33
-18 -78 -44 -100 -58 -60 -38 -290 -158 -415 -216 -61 -29 -148 -35 -230 -18
-243 53 -323 82 -453 168 -202 135 -298 224 -317 294 -6 21 -14 42 -19 44 -13
8 -61 114 -61 134 0 10 23 48 50 86 55 76 61 107 34 172 -10 23 -18 82 -21
149 -5 91 -3 116 11 142 9 18 16 49 16 70 0 21 9 55 20 76 11 20 20 49 20 64
0 16 7 41 15 57 8 15 15 36 15 45 0 9 9 30 20 46 11 17 20 37 20 46 0 9 7 22
15 29 8 7 15 21 15 31 0 17 28 81 51 119 5 8 13 25 19 38 5 12 14 22 19 22 5
0 12 15 15 34 4 19 13 39 21 46 8 7 15 20 15 30 0 10 7 23 15 30 8 7 15 16 15
20 0 5 16 32 35 61 19 30 35 59 35 65 0 35 147 204 177 204 6 0 16 7 24 16 25
31 117 84 180 105 35 11 82 27 104 34 39 13 63 13 340 0z"/>
        <path d="M14106 4961 c-7 -11 -101 -23 -206 -25 -47 -1 -94 -7 -105 -13 -11
-6 -42 -21 -68 -34 -65 -32 -84 -43 -104 -61 -10 -9 -41 -26 -70 -38 -29 -12
-58 -28 -64 -36 -6 -8 -18 -14 -26 -14 -9 0 -36 -15 -62 -34 -25 -19 -67 -42
-91 -52 -25 -10 -62 -33 -83 -51 -21 -19 -50 -39 -65 -46 -15 -6 -41 -22 -58
-34 -17 -13 -35 -23 -41 -23 -5 0 -29 -13 -51 -30 -23 -16 -44 -30 -48 -30 -3
0 -20 -11 -37 -23 -18 -13 -61 -39 -97 -57 -36 -18 -99 -56 -140 -84 -41 -28
-97 -62 -124 -76 -26 -14 -58 -38 -70 -54 -11 -16 -41 -50 -66 -75 -93 -95
-129 -174 -94 -205 86 -75 114 -93 159 -99 46 -7 208 -77 219 -96 4 -5 32 -24
64 -42 31 -18 67 -41 80 -53 12 -11 44 -32 69 -46 86 -47 84 -74 -13 -126 -32
-18 -87 -54 -122 -81 -35 -26 -78 -58 -96 -71 -17 -13 -63 -51 -102 -85 -39
-34 -113 -96 -164 -137 -51 -41 -126 -104 -166 -138 -41 -35 -89 -68 -107 -73
-45 -13 -54 -20 -62 -49 -5 -22 5 -37 68 -103 41 -42 91 -84 111 -92 64 -27
174 1 311 79 11 6 60 38 108 71 49 33 96 64 105 70 88 51 121 72 142 90 14 12
43 30 65 41 22 10 54 29 71 42 17 12 40 22 51 22 11 0 26 6 32 14 7 8 54 35
106 60 52 26 97 51 100 56 11 17 111 80 150 93 31 11 47 11 95 -2 53 -14 60
-13 83 2 21 13 26 24 25 57 0 24 6 48 16 59 9 10 16 23 16 29 0 6 15 23 34 37
19 14 37 33 40 41 9 23 -11 53 -40 60 -32 8 -43 38 -32 85 8 28 6 44 -6 66
-14 28 -21 31 -88 38 -100 11 -171 8 -205 -10 -36 -19 -101 -19 -133 0 -14 8
-45 24 -70 35 -25 11 -63 30 -85 42 -22 11 -69 37 -105 56 -36 19 -71 39 -79
46 -8 6 -37 22 -65 36 -28 14 -52 32 -54 42 -5 26 58 80 149 126 46 23 102 54
124 67 22 14 47 28 55 32 8 4 50 31 93 60 43 29 82 53 86 53 4 0 36 20 71 45
35 25 69 45 76 45 6 0 60 30 120 66 129 78 177 106 264 151 36 19 69 39 74 44
6 5 16 9 24 9 7 0 28 11 46 25 18 14 37 25 43 25 12 0 103 87 103 98 0 5 -3
11 -6 14 -7 7 -80 -24 -97 -41 -15 -15 -44 -14 -50 2 -3 7 -3 35 0 61 5 42 11
51 49 79 28 21 43 40 44 55 0 22 -14 30 -24 13z"/>
        <path d="M15194 4758 c-39 -13 -66 -38 -108 -105 -28 -42 -34 -63 -38 -120
l-3 -70 45 -18 c25 -10 65 -31 90 -47 25 -15 68 -41 95 -57 28 -17 74 -55 104
-85 54 -55 54 -55 37 -81 -9 -14 -43 -37 -74 -51 -31 -13 -65 -29 -75 -35 -10
-5 -27 -7 -39 -3 -19 6 -20 11 -14 66 7 59 7 60 -31 95 -20 20 -52 42 -70 50
-18 7 -40 24 -48 37 -23 35 -67 51 -94 34 -12 -7 -24 -23 -27 -35 -3 -12 -12
-27 -20 -34 -8 -6 -14 -21 -14 -33 0 -12 -7 -31 -15 -42 -8 -10 -15 -25 -15
-32 0 -7 -16 -35 -35 -62 -19 -27 -35 -54 -35 -59 0 -5 -7 -14 -15 -21 -8 -7
-15 -21 -15 -32 0 -10 -8 -31 -18 -46 -30 -45 -40 -64 -72 -129 -16 -34 -34
-64 -40 -68 -5 -3 -10 -14 -10 -24 0 -18 -111 -124 -154 -148 -11 -6 -30 -27
-40 -47 -16 -30 -17 -40 -7 -63 15 -33 4 -158 -15 -174 -17 -14 -19 -112 -2
-177 6 -26 22 -60 35 -75 12 -16 23 -32 23 -36 0 -4 12 -14 26 -21 14 -8 31
-28 39 -46 13 -32 102 -89 176 -113 33 -11 79 -57 79 -80 0 -5 9 -13 21 -16
37 -12 181 -105 209 -135 16 -17 35 -30 43 -30 8 0 39 -20 69 -45 49 -40 250
-145 278 -145 6 0 27 -8 48 -19 31 -15 71 -19 254 -25 l218 -7 25 25 c33 33
32 57 -5 84 -21 16 -30 31 -30 51 0 35 -21 54 -88 80 -29 12 -63 27 -75 35
-12 8 -33 17 -46 21 -14 4 -62 29 -107 56 -46 27 -85 49 -87 49 -8 0 -189 109
-206 124 -9 7 -32 21 -52 29 -20 8 -65 36 -100 61 -35 25 -68 46 -75 46 -7 0
-39 20 -72 45 -33 25 -64 45 -69 45 -6 0 -18 9 -28 20 -10 11 -24 20 -31 20
-7 0 -25 10 -39 23 -26 22 -26 24 -12 57 9 19 18 42 22 50 14 35 79 132 102
152 10 10 50 33 88 53 37 20 85 48 104 64 49 37 136 91 147 91 5 0 25 13 44
28 19 16 51 34 70 42 19 7 51 25 70 40 19 14 60 39 90 54 30 15 80 45 110 66
30 22 74 47 97 56 l42 16 44 -46 c25 -25 54 -46 65 -46 26 0 65 48 56 69 -4 9
-8 39 -9 68 -2 28 -10 62 -19 74 -12 17 -14 36 -10 74 5 39 2 62 -12 91 -44
95 -72 110 -147 79 -47 -20 -73 -19 -95 3 -10 9 -40 37 -68 61 -58 53 -84 89
-84 117 0 25 -36 59 -72 68 -19 4 -30 16 -39 43 -41 126 -151 203 -245 171z"/>
        <path d="M16831 4513 c-19 -2 -44 -11 -55 -19 -11 -8 -27 -14 -36 -14 -22 0
-70 -48 -70 -70 0 -10 14 -28 31 -40 17 -13 34 -32 39 -44 4 -12 0 -141 -9
-291 -10 -159 -16 -340 -13 -440 2 -93 4 -205 3 -248 -1 -88 48 -331 75 -372
9 -14 20 -44 26 -67 5 -26 22 -57 43 -78 18 -19 53 -57 76 -84 24 -27 56 -61
70 -75 14 -15 33 -40 42 -57 30 -59 78 -90 147 -97 35 -4 66 -5 69 -2 10 10
20 159 11 174 -4 9 -10 39 -13 66 -3 28 -10 69 -16 92 -13 46 -5 75 28 111 19
20 32 22 110 22 l88 0 49 -53 c27 -29 72 -80 99 -112 28 -33 76 -86 109 -119
32 -33 66 -79 76 -101 10 -24 39 -59 65 -81 80 -67 168 -144 227 -200 32 -30
64 -54 72 -54 9 0 39 -15 68 -34 88 -55 113 -65 219 -86 57 -11 113 -29 129
-40 43 -31 90 -37 107 -15 23 32 16 88 -16 131 -44 58 -81 92 -110 99 -14 3
-47 27 -73 52 -39 38 -49 57 -59 101 -7 35 -19 61 -36 75 -14 12 -33 39 -43
60 -26 53 -80 113 -392 435 -49 49 -88 98 -88 107 0 29 40 84 72 101 16 8 50
35 74 58 65 64 63 81 -39 265 -20 37 -35 52 -55 57 -92 20 -106 28 -118 69 -6
22 -37 77 -68 122 -31 45 -56 85 -56 89 0 19 -273 304 -291 304 -6 0 -44 29
-85 65 -41 36 -79 65 -85 65 -15 0 -79 47 -158 116 -20 17 -45 36 -56 42 -24
12 -136 22 -184 15z m426 -648 c35 -36 63 -68 63 -71 0 -3 27 -33 60 -66 75
-74 78 -99 18 -128 -23 -11 -47 -20 -53 -20 -7 0 -32 -11 -56 -23 -24 -13 -56
-27 -71 -30 -14 -4 -33 -10 -41 -13 -13 -5 -16 14 -22 123 -11 236 -11 250 9
272 11 12 21 21 24 21 3 0 34 -29 69 -65z"/>
        <path d="M7630 4340 c-46 -37 -62 -55 -116 -137 -30 -45 -66 -91 -79 -101 -14
-11 -33 -39 -44 -63 -10 -24 -37 -65 -60 -91 -22 -25 -41 -48 -41 -51 0 -11
-164 -252 -190 -282 -15 -16 -38 -50 -52 -75 -28 -54 -49 -87 -105 -164 -24
-32 -43 -64 -43 -72 0 -7 -6 -17 -13 -21 -14 -9 -56 -62 -111 -141 -28 -41
-39 -68 -48 -127 -14 -88 -4 -121 39 -130 15 -4 40 -13 55 -21 54 -29 118 -9
189 61 107 106 209 229 209 253 0 5 7 17 15 27 8 11 33 45 55 75 22 30 44 60
50 67 5 7 10 17 10 22 0 5 16 30 35 55 19 26 35 50 35 54 0 5 14 21 31 38 17
16 47 56 66 89 20 33 51 76 69 96 18 20 48 62 67 92 27 41 43 57 66 62 35 7
54 -9 118 -105 20 -30 57 -78 82 -107 70 -79 110 -140 143 -217 33 -77 51
-107 86 -145 13 -14 40 -56 60 -95 36 -70 99 -152 193 -253 27 -30 49 -58 49
-63 0 -4 16 -18 34 -30 19 -11 38 -29 41 -38 3 -9 21 -28 40 -42 19 -14 37
-33 40 -43 4 -9 15 -22 26 -28 28 -14 124 -39 154 -39 66 0 57 133 -15 215 -9
11 -28 47 -41 80 -13 33 -30 71 -39 85 -9 14 -38 64 -64 113 -26 48 -51 87
-56 87 -11 0 -50 81 -50 103 0 7 -18 33 -40 58 -22 24 -40 52 -40 62 0 18 -70
155 -115 227 -12 19 -25 46 -30 59 -4 13 -20 37 -36 52 -16 16 -51 55 -76 86
-26 32 -80 89 -120 127 -40 38 -73 73 -73 78 0 11 -105 135 -164 194 -82 82
-146 103 -196 64z"/>
        <path d="M11181 4321 c-23 -18 -25 -26 -32 -167 -8 -151 -21 -268 -39 -359
-13 -62 -16 -301 -6 -415 6 -68 5 -89 -7 -104 -14 -19 -16 -19 -41 -3 -14 10
-32 32 -40 50 -21 51 -251 278 -314 311 -17 9 -56 38 -86 65 -31 26 -75 61
-99 77 -23 16 -72 54 -108 86 -37 32 -70 58 -74 58 -5 0 -24 12 -44 28 -20 15
-52 35 -71 45 -43 23 -113 69 -121 80 -10 14 -152 38 -188 32 -20 -4 -52 -24
-81 -51 -50 -47 -70 -53 -90 -29 -6 8 -22 17 -33 21 -12 4 -33 15 -46 25 -35
28 -75 24 -113 -10 l-33 -29 1 -139 c1 -270 12 -649 19 -696 5 -33 13 -51 25
-55 21 -8 56 -55 118 -157 50 -84 90 -124 157 -157 91 -45 139 -47 154 -5 5
12 4 33 -1 47 -5 14 -10 156 -10 315 -1 223 -4 296 -14 317 -8 15 -14 40 -14
55 -1 15 -7 46 -15 68 -8 22 -17 65 -21 97 -6 56 -6 56 26 73 30 15 33 15 51
-1 11 -10 30 -35 41 -56 12 -21 30 -41 41 -44 23 -7 207 -187 207 -202 0 -5
16 -17 35 -26 19 -10 58 -38 85 -63 28 -26 61 -53 73 -62 12 -8 28 -21 35 -28
7 -7 18 -13 23 -13 5 0 31 -21 58 -47 79 -77 129 -117 178 -140 25 -13 53 -29
62 -36 9 -7 50 -33 91 -57 41 -24 91 -53 111 -65 40 -26 183 -85 204 -85 8 0
29 -19 47 -42 64 -80 145 -148 176 -148 28 0 60 36 67 74 7 39 8 217 1 566 -5
312 -9 383 -25 423 -6 16 -11 50 -11 76 0 27 -10 73 -24 107 -15 37 -26 89
-30 139 -7 100 -13 124 -40 154 -27 30 -161 121 -178 121 -7 0 -24 -9 -37 -19z"/>
    </g>
</svg>
